<?xml version="1.0" encoding="UTF-8" standalone="no"?>
<svg
   xmlns:dc="http://purl.org/dc/elements/1.1/"
   xmlns:cc="http://creativecommons.org/ns#"
   xmlns:rdf="http://www.w3.org/1999/02/22-rdf-syntax-ns#"
   xmlns:svg="http://www.w3.org/2000/svg"
   xmlns="http://www.w3.org/2000/svg"
   xmlns:sodipodi="http://sodipodi.sourceforge.net/DTD/sodipodi-0.dtd"
   xmlns:inkscape="http://www.inkscape.org/namespaces/inkscape"
   inkscape:version="1.0 (4035a4f, 2020-05-01)"
   sodipodi:docname="drawing.svg"
   id="svg8"
   version="1.1"
   viewBox="0 0 281.40662 94.358559"
   height="94.358559mm"
   width="281.40662mm">
  <defs
     id="defs2" />
  <sodipodi:namedview
     inkscape:window-maximized="0"
     inkscape:window-y="0"
     inkscape:window-x="0"
     inkscape:window-height="1058"
     inkscape:window-width="1252"
     showgrid="false"
     inkscape:document-rotation="0"
     inkscape:current-layer="layer1"
     inkscape:document-units="mm"
     inkscape:cy="918.91238"
     inkscape:cx="263.31471"
     inkscape:zoom="0.29046354"
     inkscape:pageshadow="2"
     inkscape:pageopacity="0.0"
     borderopacity="1.0"
     bordercolor="#666666"
     pagecolor="#ffffff"
     id="base" />
  <metadata
     id="metadata5">
    <rdf:RDF>
      <cc:Work
         rdf:about="">
        <dc:format>image/svg+xml</dc:format>
        <dc:type
           rdf:resource="http://purl.org/dc/dcmitype/StillImage" />
        <dc:title></dc:title>
      </cc:Work>
    </rdf:RDF>
  </metadata>
  <g
     transform="translate(-5.4597156,-11.92546)"
     id="layer1"
     inkscape:groupmode="layer"
     inkscape:label="Layer 1">
    <path
       id="path980"
       d="m 120.38943,105.45844 c -0.47662,-0.78311 -5.28785,-8.416685 -5.33845,-8.470055 -0.0132,-0.0139 -0.6857,0.0376 -1.49447,0.11459 -2.03882,0.19398 -6.23692,0.13118 -8.07599,-0.1208 -6.954404,-0.95288 -13.718667,-3.77535 -19.641143,-8.19548 -1.818226,-1.357 -3.101332,-2.4769 -4.872381,-4.25266 -3.624771,-3.63441 -6.128594,-7.10245 -8.288953,-11.48101 -2.186606,-4.43175 -3.447728,-8.68232 -4.032329,-13.59083 -0.182681,-1.53386 -0.254198,-5.59835 -0.12812,-7.28145 0.659056,-8.79817 4.267005,-17.55056 10.155586,-24.63605 1.066848,-1.2837 3.442777,-3.696 4.699078,-4.77102 6.045014,-5.17275 13.336858,-8.51567 21.164662,-9.70287 5.96888,-0.90527 11.10708,-0.37013 17.84496,1.85852 5.08718,1.68265 8.95594,3.51756 12.7335,6.03936 4.50119,3.00486 8.34635,6.82659 11.25898,11.19034 1.20746,1.80905 1.81611,2.87499 2.80245,4.90798 2.27989,4.69916 3.54142,9.4598 3.93625,14.85429 0.12704,1.73577 0.0577,5.44238 -0.13241,7.07707 -1.01188,8.70104 -4.76531,16.78088 -10.94219,23.5548 l -0.78798,0.86413 0.31912,0.0807 c 0.17551,0.0444 2.18602,0.52628 4.46778,1.07093 2.28177,0.54465 4.1643,1.00507 4.1834,1.02316 0.16442,0.15572 -0.58877,1.45165 -1.5206,2.61632 -0.709,0.88616 -3.21794,3.39523 -4.61013,4.61038 -6.92866,6.04758 -16.22003,11.841565 -20.96738,13.075035 -0.64693,0.16809 -1.90414,0.39372 -2.17392,0.39016 -0.0315,0 -0.28325,-0.3719 -0.55932,-0.8255 z M 112.6812,93.398775 c 0.0324,-0.0324 -0.9118,-1.5945 -2.09821,-3.47133 -5.51905,-8.73077 -9.89843,-15.91516 -9.77601,-16.03758 0.0183,-0.0183 1.34442,0.2888 2.94686,0.6825 3.76658,0.9254 9.9966,2.40565 19.08488,4.53457 4.00473,0.9381 8.9757,2.10275 11.04658,2.58812 l 3.76526,0.88248 0.45345,-0.44426 c 1.47768,-1.44767 2.92067,-3.24024 4.3788,-5.43958 5.36805,-8.09682 7.6986,-17.21918 6.64055,-25.99267 -0.38919,-3.22717 -1.34125,-6.83401 -2.58146,-9.77975 -3.2673,-7.76048 -9.14348,-14.31026 -16.67585,-18.58742 -3.45692,-1.96296 -10.17172,-4.58376 -13.843,-5.40295 -2.75859,-0.61553 -5.94983,-0.63066 -10.20234,-0.0484 -12.806519,1.75358 -23.475637,9.48233 -29.328238,21.2455 -2.107232,4.23533 -3.30446,8.02683 -3.876562,12.27667 -0.241632,1.79495 -0.2192,6.47793 0.04015,8.382 1.074686,7.88997 4.595079,15.41028 10.032927,21.43249 7.236647,8.01431 16.688949,12.67684 26.814733,13.22687 0.90319,0.0491 3.11404,0.0162 3.17748,-0.0473 z m -5.57544,-2.87222 c -6.02758,-0.58042 -13.647103,-3.82893 -19.022717,-8.11018 -0.961669,-0.76589 -2.54,-2.27553 -2.54,-2.42946 0,-0.0603 0.896603,-3.79768 1.992461,-8.30539 1.095849,-4.50771 2.131526,-8.77686 2.301494,-9.487 0.169977,-0.71014 0.333578,-1.29116 0.363567,-1.29116 0.03,0 0.715417,1.09537 1.523162,2.43416 0.807754,1.33879 2.611019,4.28202 4.007269,6.5405 5.942484,9.61222 8.351454,13.61653 10.747304,17.86467 1.56401,2.77316 1.62023,2.88193 1.48197,2.86723 -0.0592,-0.006 -0.44369,-0.0438 -0.85451,-0.0834 z m 28.13662,-10.2856 c -1.29264,-0.36939 -4.88192,-1.27073 -8.55133,-2.14741 -4.84094,-1.15657 -9.34116,-2.2828 -9.41439,-2.35605 -0.0329,-0.0329 0.36693,-0.32267 0.88847,-0.64395 4.1314,-2.54507 9.38932,-5.75668 15.46859,-9.44842 7.26852,-4.41393 11.1884,-6.80417 12.39544,-7.55839 l 0.66911,-0.4181 -0.0498,1.3422 c -0.0558,1.50571 -0.25757,2.80372 -0.70822,4.55726 -1.21613,4.73223 -3.976,10.19096 -7.14984,14.1416 -1.08134,1.346 -2.44705,2.75384 -2.66217,2.74429 -0.0914,-0.004 -0.49005,-0.0999 -0.88587,-0.21303 z m -51.725012,-2.79446 c -2.401274,-2.62738 -4.621779,-6.34131 -6.016429,-10.06286 -1.336577,-3.56658 -2.203652,-8.20686 -2.199685,-11.77194 l 0.0011,-1.016 0.823496,-0.54554 c 2.090948,-1.38517 4.400908,-2.82038 8.824496,-5.48279 2.631017,-1.58352 5.269442,-3.18754 5.863167,-3.5645 0.701997,-0.44569 1.0795,-0.64149 1.0795,-0.55988 0,0.63036 -2.067136,9.47396 -4.431326,18.95804 -1.3594,5.45331 -2.251617,9.16246 -2.938476,12.21587 -0.278358,1.23746 -0.5197,2.26352 -0.536312,2.28013 -0.01661,0.0166 -0.227914,-0.18613 -0.469561,-0.45053 z m 47.031762,-13.40128 c 0.81091,-3.84934 1.67112,-7.50384 3.64917,-15.50319 1.84809,-7.4738 2.62612,-10.69398 3.3344,-13.80066 0.3238,-1.42029 0.60963,-2.67289 0.63517,-2.78355 l 0.0465,-0.20122 0.21703,0.20122 c 0.11937,0.11066 0.58518,0.63936 1.03513,1.17488 3.89035,4.63018 6.32311,10.37737 7.15774,16.90958 0.16825,1.31672 0.30139,3.16815 0.30182,4.1969 v 0.82882 l -1.4605,0.95704 c -1.60069,1.04889 -4.18495,2.64451 -7.00617,4.32587 -2.8612,1.70518 -4.91433,2.95827 -6.51933,3.97894 -0.81492,0.51823 -1.52502,0.96853 -1.578,1.00066 -0.0575,0.0349 0.0177,-0.4826 0.18674,-1.28529 z M 75.272037,51.443425 c 0.591998,-6.30942 3.978028,-14.4068 8.187952,-19.58073 0.725373,-0.89147 2.42068,-2.62467 2.567297,-2.62467 0.06721,0 3.195676,0.76022 6.952149,1.68938 3.756461,0.92916 7.972945,1.94243 9.369945,2.25171 1.397,0.30927 2.55138,0.57326 2.56529,0.58663 0.0576,0.0554 -6.910344,4.51013 -11.41296,7.29655 -5.45879,3.37815 -13.816222,8.32208 -17.706277,10.47433 l -0.561277,0.31054 z m 55.594273,-4.60501 c -1.94318,-3.08588 -4.08046,-6.55665 -6.58903,-10.70005 -6.38358,-10.54378 -8.12913,-13.40409 -9.93341,-16.27717 l -0.43865,-0.6985 0.44508,7e-5 c 0.69467,8e-5 2.16468,0.15558 3.24528,0.34322 6.25218,1.08567 14.12693,5.11014 18.35965,9.38289 l 0.75516,0.76231 -0.44588,1.88892 c -0.24523,1.03891 -1.08914,4.5267 -1.87535,7.75066 -0.78619,3.22396 -1.60297,6.59581 -1.81504,7.493 -0.21207,0.89719 -0.41464,1.70284 -0.45014,1.79032 -0.0511,0.12597 -0.31277,-0.23512 -1.25767,-1.73567 z m -11.16026,-11.42485 c -2.40009,-0.65313 -11.10156,-2.81137 -17.907,-4.44151 -6.080734,-1.45654 -13.648976,-3.3036 -13.86833,-3.38461 -0.134451,-0.0497 0.116552,-0.27364 1.37999,-1.23143 6.063107,-4.59632 12.9926,-7.07114 20.534,-7.33359 l 1.56865,-0.0546 0.75426,1.2616 c 0.41485,0.69387 1.78823,2.91894 3.05196,4.94459 1.26373,2.02565 2.71754,4.38785 3.2307,5.24934 1.77862,2.98594 3.0791,5.4242 2.88645,5.4118 -0.0587,-0.004 -0.79248,-0.1935 -1.63068,-0.4216 z m 133.39234,62.43345 c -8.28689,-0.43331 -14.25787,-2.26296 -18.87731,-5.78446 -3.10587,-2.36766 -5.36494,-5.03711 -7.02238,-8.29803 -1.13827,-2.2395 -1.85719,-4.29152 -2.41789,-6.9015 -0.38267,-1.78122 -0.80156,-4.95696 -0.80688,-6.11716 l -8.8e-4,-0.1905 h 7.8616 7.86161 l 0.14713,0.89658 c 0.61922,3.77337 2.04145,6.66331 4.15554,8.444 2.56021,2.15645 5.62344,3.34772 9.98846,3.88442 1.32783,0.16326 5.51701,0.13506 6.81567,-0.0459 4.87424,-0.67915 7.78557,-2.27906 9.44456,-5.19021 0.9139,-1.60369 1.3692,-4.30486 1.0108,-5.99681 -0.49707,-2.34659 -2.63314,-4.54953 -6.3067,-6.50414 -2.85986,-1.52165 -7.28065,-3.07703 -12.192,-4.28953 -0.76835,-0.18969 -1.56845,-0.42143 -1.778,-0.51498 -0.20955,-0.0935 -1.7526,-0.50959 -3.429,-0.92453 -7.38088,-1.82692 -10.67824,-3.03909 -13.88533,-5.10454 -1.55611,-1.00218 -2.45943,-1.71874 -3.27957,-2.60154 -1.47341,-1.58598 -2.15913,-2.78738 -3.71247,-6.50422 -1.74685,-4.1799 -2.08537,-11.11127 -0.80099,-16.40029 1.02487,-4.22031 2.94735,-7.63163 5.94212,-10.54391 4.21081,-4.09482 10.28461,-6.41403 18.65724,-7.12406 1.73181,-0.14687 7.10628,-0.14703 8.67834,-2.6e-4 7.74337,0.72291 13.45217,3.01358 17.44369,6.99934 3.46642,3.46141 5.90519,8.0664 6.92806,13.08189 0.35023,1.71726 0.647,4.11691 0.64718,5.23289 l 7e-5,0.44922 -5.22817,-0.0294 c -5.01421,-0.0282 -5.25426,-0.0367 -5.86587,-0.2082 -1.46433,-0.41059 -2.43509,-0.96304 -3.40516,-1.93789 -0.69116,-0.69458 -1.21487,-1.46223 -1.77426,-2.60076 -0.98173,-1.99808 -2.46777,-3.77114 -3.98613,-4.75602 -2.8186,-1.82826 -6.58186,-2.69383 -11.10942,-2.55521 -3.0958,0.0948 -5.34791,0.55459 -7.10321,1.45025 -0.96118,0.49046 -1.55386,0.94048 -2.55794,1.94226 -1.283,1.28006 -1.94198,2.5217 -2.32147,4.37408 -0.23506,1.14743 -0.25854,2.76066 -0.0517,3.54944 0.64602,2.46315 2.83579,4.50916 6.53096,6.10215 1.22724,0.52907 3.54889,1.30647 5.16467,1.7294 0.65193,0.17064 1.75683,0.47647 2.45533,0.67963 1.4638,0.42574 2.65788,0.72765 3.683,0.93122 0.39582,0.0786 1.67217,0.4604 2.83634,0.84844 2.56685,0.85557 3.61615,1.1679 7.08146,2.10778 l 2.6788,0.72656 3.12086,1.41166 c 1.77317,0.80206 3.38281,1.58674 3.72744,1.81709 1.51281,1.01115 3.39658,2.74726 4.53308,4.17774 1.75416,2.20795 2.97351,4.8456 3.70173,8.00747 0.35785,1.55373 0.52504,3.03241 0.57364,5.07353 0.17276,7.25476 -1.6361,13.22251 -5.43415,17.92815 -4.96524,6.15177 -13.96021,9.40263 -25.78253,9.31803 -1.14089,-0.008 -2.28389,-0.0258 -2.54,-0.0392 z m -91.18551,-38.95449 c 8.5e-4,-41.72738 -0.0222,-39.50537 0.41879,-40.92691 0.53962,-1.73952 1.72933,-3.44069 3.16986,-4.53261 0.62835,-0.47628 1.83081,-1.05504 2.63385,-1.2677 0.56648,-0.15001 1.25871,-0.15694 15.66334,-0.15694 16.1022,0 15.88656,-0.005 18.4628,0.42556 4.24146,0.70883 7.70248,2.21955 10.5528,4.60625 0.8502,0.71191 1.82838,1.73046 2.64825,2.75752 3.86632,4.84339 5.70896,11.79386 5.5217,20.828 -0.0703,3.38914 -0.33443,5.76275 -0.94604,8.49998 -1.05866,4.73795 -3.26722,9.13112 -5.94629,11.82812 -3.52938,3.55298 -8.12827,5.48769 -14.15998,5.95697 -0.7079,0.0551 -5.10458,0.0886 -11.6205,0.0886 h -10.48174 v 15.32466 15.32467 h -7.95867 -7.95867 l 8.5e-4,-38.75617 z m 33.44284,-7.39225 c 5.29175,-0.48467 8.24609,-2.85721 9.43408,-7.57623 0.34004,-1.35071 0.42714,-2.31667 0.42719,-4.73768 4e-5,-2.07078 -0.0233,-2.4992 -0.18486,-3.38667 -0.43851,-2.40944 -1.36932,-4.65062 -2.43741,-5.86872 -0.81216,-0.92623 -2.77503,-2.07178 -4.29584,-2.50711 -1.84085,-0.52693 -1.37455,-0.50494 -11.34633,-0.53523 l -9.12283,-0.0277 v 12.36455 12.36455 l 8.27617,-2.5e-4 c 5.12138,-1.7e-4 8.64732,-0.0343 9.24983,-0.0895 z M 30.890707,97.257835 c -7.05598,-0.44738 -12.242098,-2.34784 -16.298334,-5.97254 -0.806674,-0.72086 -2.404139,-2.49222 -3.216191,-3.56631 -2.7576399,-3.64748 -4.6000179,-8.45101 -5.4140089,-14.11562 -0.484963,-3.3749 -0.459436,-1.88872 -0.49082,-28.575 -0.02603,-22.13136 -0.01555,-24.64521 0.106218,-25.48467 0.444303,-3.06305 2.372418,-5.91803 4.7136879,-6.97962 1.055809,-0.47872 1.445968,-0.51338 5.779212,-0.51338 h 3.940569 l 8.47e-4,26.64883 c 5.08e-4,16.50213 0.03265,27.19687 0.08443,28.08817 0.31662,5.45071 1.466147,9.55839 3.319693,11.86248 1.934987,2.40533 5.125671,3.75069 9.252729,3.90146 4.146291,0.15146 7.455398,-0.88767 9.87502,-3.10097 2.51008,-2.29605 3.908421,-6.32601 4.305742,-12.40897 0.05127,-0.78492 0.08345,-11.52941 0.08426,-28.1305 l 0.0013,-26.8605 h 7.199036 7.199035 l -0.02958,28.6385 c -0.02222,21.51645 -0.05497,28.90169 -0.131683,29.69683 -0.664868,6.8916 -2.063583,11.58411 -4.694064,15.748 -0.748991,1.18561 -1.338492,1.95618 -2.569932,3.35932 -3.896617,4.4399 -8.926759,6.8122 -16.129488,7.60691 -1.161102,0.12812 -5.710756,0.23221 -6.88766,0.15758 z M 146.67238,82.036755 c 0,-0.0649 0.0572,-0.13987 0.127,-0.16668 0.0864,-0.0332 0.127,0.005 0.127,0.11794 0,0.0917 -0.0571,0.16668 -0.127,0.16668 -0.0699,0 -0.127,-0.0531 -0.127,-0.11794 z"
       style="fill:#000000;stroke-width:0.0846667" />
  </g>
</svg>
